<svg width="23" height="24" viewBox="0 0 23 24" fill="none" xmlns="http://www.w3.org/2000/svg">
<path d="M0.608892 1.40793C0.347781 1.66931 0.196671 2.07624 0.196671 2.60324V21.401C0.196671 21.928 0.347781 22.3349 0.608892 22.5963L0.673337 22.6537L11.6889 12.1243V11.8757L0.673337 1.34631L0.608892 1.40793Z" fill="black"/>
<path d="M16.69 15.6359L13.0222 12.1243V11.8757L16.6944 8.36412L16.7766 8.4098L21.1255 10.776C22.3666 11.4475 22.3666 12.5525 21.1255 13.2282L16.7766 15.5902L16.69 15.6359V15.6359Z" fill="black"/>
<path d="M16.11 16.244L12.3555 12.6538L1.27554 23.2502C1.68777 23.6645 2.35999 23.7145 3.12443 23.3001L16.11 16.244" fill="black"/>
<path d="M16.11 7.75594L3.12443 0.699883C2.35999 0.289758 1.68777 0.339694 1.27554 0.754069L12.3555 11.3461L16.11 7.75594Z" fill="black"/>
</svg>
