<svg width="48" height="28" viewBox="0 0 48 28" fill="none" xmlns="http://www.w3.org/2000/svg">
<path d="M41.0949 3.75246C46.5081 2.31184 48 0.84304 48 0.84304H32.583H28.4451C28.1964 0.84304 27.9583 0.978819 27.8632 1.2051C27.8549 1.22495 27.8477 1.24492 27.8419 1.26493L25.6428 9.74019L23.8648 16.5913H23.7087L17.4701 1.18319C17.3919 0.952799 17.1971 0.760706 16.8069 0.760706H16.1053C15.7151 0.760706 15.5203 0.952799 15.4424 1.18319L9.24244 16.5913H9.08632L5.03132 1.26493C4.9534 0.995913 4.64111 0.727274 4.32943 0.727274H0.742014C0.195959 0.727274 -0.11573 1.11135 0.0401135 1.64901L7.4095 27.4624C7.48769 27.7698 7.79938 28 8.11167 28H8.73565C9.12526 28 9.28143 27.8081 9.39828 27.5776L16.3001 10.1767H16.4949L23.475 27.5776C23.5529 27.8081 23.787 28 24.1376 28H24.7619C25.0735 28 25.3859 27.7698 25.4635 27.4624L30.6863 9.16851C38.3806 8.01038 40.2235 6.19645 40.2235 6.19645H38.1626C42.7108 4.98627 43.9639 3.75246 43.9639 3.75246H41.0949Z" fill="#3480C1"/>
</svg>
