<svg width="19" height="22" viewBox="0 0 19 22" fill="none" xmlns="http://www.w3.org/2000/svg">
<path d="M15.7804 11.8164C15.7547 9.07682 18.1262 7.74402 18.2347 7.68197C16.8916 5.80942 14.8098 5.55357 14.0782 5.53317C12.3298 5.35722 10.6338 6.53362 9.74311 6.53362C8.83467 6.53362 7.46311 5.55017 5.98489 5.57907C4.08267 5.60712 2.30311 6.66027 1.32711 8.29567C-0.68711 11.6302 0.815112 16.5305 2.74489 19.2258C3.71022 20.5459 4.83822 22.0198 6.31467 21.9679C7.75911 21.911 8.29867 21.0873 10.0418 21.0873C11.7689 21.0873 12.2756 21.9679 13.7813 21.9348C15.3316 21.911 16.3076 20.6088 17.2391 19.2768C18.3547 17.7638 18.8027 16.2738 18.8204 16.1973C18.784 16.1854 15.8098 15.0999 15.7804 11.8164Z" fill="black"/>
<path d="M12.936 3.76007C13.7129 2.83102 14.2444 1.56707 14.0969 0.284424C12.9724 0.332024 11.5662 1.02817 10.7564 1.93682C10.04 2.73752 9.4 4.04992 9.56533 5.28412C10.8284 5.37422 12.1253 4.67467 12.936 3.76007Z" fill="black"/>
</svg>
